<svg width="120" height="120" viewBox="0 0 120 120" fill="none" xmlns="http://www.w3.org/2000/svg">
<path fill-rule="evenodd" clip-rule="evenodd" d="M97.02 60.8863C97.02 58.1209 96.7718 55.4618 96.3109 52.9091H59.58V67.995H80.5691C79.665 72.87 76.9173 77.0004 72.7868 79.7659V89.5513H85.3909C92.7654 82.7618 97.02 72.7636 97.02 60.8863Z" fill="#4285F4"/>
<path fill-rule="evenodd" clip-rule="evenodd" d="M59.5801 98.9999C70.1101 98.9999 78.9383 95.5076 85.391 89.5513L72.7869 79.7658C69.2946 82.1058 64.8274 83.4885 59.5801 83.4885C49.4224 83.4885 40.8246 76.6281 37.7578 67.4099H24.7283V77.5145C31.1455 90.2604 44.3346 98.9999 59.5801 98.9999Z" fill="#34A853"/>
<path fill-rule="evenodd" clip-rule="evenodd" d="M37.7577 67.41C36.9777 65.07 36.5345 62.5705 36.5345 60C36.5345 57.4296 36.9777 54.93 37.7577 52.59V42.4855H24.7282C22.0868 47.7505 20.58 53.7068 20.58 60C20.58 66.2932 22.0868 72.2496 24.7282 77.5146L37.7577 67.41Z" fill="#FBBC05"/>
<path fill-rule="evenodd" clip-rule="evenodd" d="M59.5801 36.5114C65.306 36.5114 70.4469 38.4791 74.4887 42.3436L85.6746 31.1577C78.9205 24.8645 70.0924 21 59.5801 21C44.3346 21 31.1455 29.7395 24.7283 42.4855L37.7578 52.59C40.8246 43.3718 49.4224 36.5114 59.5801 36.5114Z" fill="#EA4335"/>
</svg>
