<svg width="20" height="20" viewBox="0 0 20 20" fill="none" xmlns="http://www.w3.org/2000/svg">
<path d="M9 6.75C9 6.33579 8.6642 6 8.25 6C7.83579 6 7.5 6.33579 7.5 6.75V13.25C7.5 13.6642 7.83579 14 8.25 14C8.6642 14 9 13.6642 9 13.25V6.75ZM15 6.75C15 6.33579 14.6642 6 14.25 6C13.8358 6 13.5 6.33579 13.5 6.75V13.25C13.5 13.6642 13.8358 14 14.25 14C14.6642 14 15 13.6642 15 13.25V6.75ZM12 8.25C12 7.83579 11.6642 7.5 11.25 7.5C10.8358 7.5 10.5 7.83579 10.5 8.25V11.75C10.5 12.1642 10.8358 12.5 11.25 12.5C11.6642 12.5 12 12.1642 12 11.75V8.25ZM6 8.75C6 8.3358 5.66421 8 5.25 8C4.83579 8 4.5 8.3358 4.5 8.75V11.25C4.5 11.6642 4.83579 12 5.25 12C5.66421 12 6 11.6642 6 11.25V8.75ZM10 0C4.47715 0 0 4.47715 0 10C0 15.5228 4.47715 20 10 20C15.5228 20 20 15.5228 20 10C20 4.47715 15.5228 0 10 0ZM1.5 10C1.5 5.30558 5.30558 1.5 10 1.5C14.6944 1.5 18.5 5.30558 18.5 10C18.5 14.6944 14.6944 18.5 10 18.5C5.30558 18.5 1.5 14.6944 1.5 10Z" fill="#00A8FF" fill-opacity="0.51"/>
</svg>
